mtllib Minecraft_creeper.mtl
v -0.406481 1.006718 0.780756
v 0.413981 1.006718 0.780756
v -0.408017 4.185904 0.783431
v 0.418797 4.194210 0.783431
v -0.408017 4.192719 -0.725390
v 0.418797 4.191348 -0.725390
v -0.406481 1.006718 -0.724764
v 0.413981 1.006718 -0.724764
v -1.115153 0.000714 0.776869
v -0.409126 0.000714 0.776869
v -1.115704 0.749454 0.776752
v -0.406579 0.749454 0.776752
v -1.115153 0.750783 0.063013
v -0.406579 0.749454 0.064346
v -1.115153 0.000714 0.063013
v -0.409126 0.000714 0.063013
v 0.410227 0.000000 0.776869
v 1.116254 0.000000 0.776869
v 0.410475 0.749097 0.776752
v 1.115567 0.749097 0.776752
v 0.410475 0.749097 0.064346
v 1.115567 0.749097 0.064346
v 0.410227 0.000000 0.063013
v 1.116254 0.000000 0.063013
v -1.116254 1.003105 0.776636
v 1.114880 1.003105 0.776636
v -1.116254 1.003105 -0.724725
v 1.114880 1.003105 -0.724725
v -1.115704 0.749454 -0.719455
v 1.115567 0.749097 -0.719455
v 0.410475 0.749097 -0.719455
v 1.115567 0.749097 0.001967
v 0.410475 0.749097 0.001967
v -1.115704 0.749454 0.001967
v -1.116254 1.003105 0.004264
v 0.412352 1.004911 0.005156
v 1.114880 1.003105 0.004264
v -1.116254 0.748124 0.065678
v -1.116254 1.003105 0.065678
v 0.412352 1.004911 0.065000
v 1.114880 1.003105 0.065678
v -0.406579 0.749454 -0.719455
v -0.406579 0.749454 0.001967
v -0.405256 1.004911 0.065000
v -0.405256 1.004911 0.005156
v 0.410227 0.000000 -0.000330
v 1.116254 0.000000 -0.000330
v 0.410227 0.000000 -0.714185
v 1.116254 0.000000 -0.714185
v -1.115153 0.000714 -0.000330
v -0.409126 0.000714 -0.000330
v -1.115153 0.000714 -0.714185
v -0.409126 0.000714 -0.714185
v -0.408930 4.216036 0.066464
v 0.417239 4.216036 0.066464
v -0.408930 4.216036 0.008029
v 0.417239 4.216036 0.008029
v -0.977450 4.191264 0.879188
v 0.914983 4.191264 0.879188
v -0.977450 5.776055 0.879188
v 0.914983 5.776055 0.879188
v -0.977450 5.776055 -0.879188
v 0.914983 5.776055 -0.879188
v -0.977450 4.191264 -0.879188
v 0.914983 4.191264 -0.879188
v 0.420354 4.191264 -0.879188
v 0.420354 4.191264 0.879188
v 0.420354 5.776055 0.879188
v 0.420354 5.776055 -0.879188
v -0.407104 4.191264 -0.879188
v -0.407104 4.191264 0.879188
v -0.407104 5.776055 0.879188
v -0.407104 5.776055 -0.879188
v 0.914983 4.191264 -0.725980
v -0.977450 4.191264 -0.725980
v -0.977450 5.776055 -0.725980
v -0.407104 5.776055 -0.725980
v 0.420354 5.776055 -0.725980
v 0.914983 5.776055 -0.725980
v 0.914983 4.191264 0.781986
v -0.977450 4.191264 0.781986
v -0.977450 5.776055 0.781986
v -0.407104 5.776055 0.781986
v 0.420354 5.776055 0.781986
v 0.914983 5.776055 0.781986
vt 0.617754 0.001989
vt 0.701553 0.002197
vt 0.701625 0.367809
vt 0.617424 0.370644
vt 0.610884 0.001989
vt 0.610716 0.370644
vt 0.528711 0.002197
vt 0.528404 0.368138
vt 0.709729 0.002197
vt 0.793527 0.001989
vt 0.793857 0.370644
vt 0.709657 0.367967
vt 0.800398 0.001989
vt 0.800566 0.370644
vt 0.882571 0.002197
vt 0.882878 0.367184
vt 0.564623 0.884963
vt 0.646578 0.884963
vt 0.646425 0.970922
vt 0.564637 0.970922
vt 0.890909 0.634852
vt 0.972864 0.634852
vt 0.972850 0.720811
vt 0.890909 0.720964
vt 0.557638 0.880971
vt 0.557638 0.799017
vt 0.643639 0.799170
vt 0.643639 0.880958
vt 0.672800 0.799323
vt 0.672800 0.880944
vt 0.643639 0.792008
vt 0.672800 0.792272
vt 0.643639 0.709185
vt 0.672800 0.708580
vt 0.557638 0.791745
vt 0.557638 0.709790
vt 0.828863 0.724955
vt 0.910817 0.724955
vt 0.910804 0.810955
vt 0.829016 0.810955
vt 0.766382 0.767661
vt 0.766382 0.684837
vt 0.795502 0.684574
vt 0.795502 0.768266
vt 0.680422 0.767056
vt 0.680422 0.685101
vt 0.766229 0.677523
vt 0.795502 0.677523
vt 0.766382 0.595888
vt 0.795502 0.595901
vt 0.653318 0.884963
vt 0.735273 0.884963
vt 0.735536 0.970963
vt 0.652713 0.970963
vt 0.388382 0.885585
vt 0.470336 0.885585
vt 0.470941 0.971544
vt 0.388118 0.971544
vt 0.183935 0.726341
vt 0.001992 0.726341
vt 0.001992 0.708751
vt 0.183935 0.708751
vt 0.183935 0.899463
vt 0.001992 0.899463
vt 0.001992 0.910622
vt 0.183935 0.910622
vt 0.191235 0.910622
vt 0.191235 0.893033
vt 0.373178 0.893033
vt 0.373178 0.910622
vt 0.191235 0.719911
vt 0.373178 0.719911
vt 0.191235 0.708751
vt 0.373178 0.708751
vt 0.300927 0.914614
vt 0.381983 0.914614
vt 0.381983 0.996568
vt 0.300927 0.996568
vt 0.213736 0.914614
vt 0.294792 0.914614
vt 0.294792 0.996568
vt 0.213736 0.996568
vt 0.380284 0.797897
vt 0.461910 0.797795
vt 0.461769 0.881593
vt 0.380284 0.881589
vt 0.380284 0.790846
vt 0.461910 0.790924
vt 0.380284 0.709224
vt 0.461769 0.708751
vt 0.470123 0.881422
vt 0.469936 0.797623
vt 0.550590 0.797726
vt 0.550590 0.881418
vt 0.469936 0.790753
vt 0.550590 0.790675
vt 0.470123 0.708580
vt 0.550590 0.709053
vt 0.909059 0.455583
vt 0.909059 0.374635
vt 0.916220 0.374635
vt 0.916220 0.455583
vt 0.916220 0.549386
vt 0.909059 0.549386
vt 0.909059 0.630797
vt 0.916373 0.630860
vt 0.826235 0.549386
vt 0.826235 0.455583
vt 0.998008 0.549386
vt 0.998008 0.455583
vt 0.126545 0.914614
vt 0.207601 0.914614
vt 0.207601 0.996568
vt 0.126545 0.996568
vt 0.039354 0.914614
vt 0.120410 0.914614
vt 0.120410 0.996568
vt 0.039354 0.996568
vt 0.614433 0.704589
vt 0.614433 0.639110
vt 0.632022 0.639110
vt 0.632022 0.704589
vt 0.441311 0.704589
vt 0.441311 0.639110
vt 0.614433 0.544113
vt 0.632022 0.544113
vt 0.430151 0.704589
vt 0.430151 0.639110
vt 0.441311 0.544113
vt 0.614433 0.487327
vt 0.632022 0.487327
vt 0.430151 0.544113
vt 0.441311 0.487327
vt 0.430151 0.487327
vt 0.034067 0.704760
vt 0.034067 0.639281
vt 0.051724 0.639386
vt 0.051656 0.704760
vt 0.034067 0.544285
vt 0.051724 0.544463
vt 0.224945 0.639386
vt 0.224779 0.704760
vt 0.034067 0.487499
vt 0.051656 0.487499
vt 0.235938 0.639281
vt 0.235938 0.704760
vt 0.224779 0.487499
vt 0.224945 0.544463
vt 0.235938 0.544285
vt 0.235938 0.487499
vt 0.083478 0.117566
vt 0.177671 0.117566
vt 0.178224 0.483507
vt 0.083301 0.482553
vt 0.083467 0.088031
vt 0.177269 0.087990
vt 0.002055 0.088031
vt 0.001992 0.117151
vt 0.258217 0.087990
vt 0.258138 0.117151
vt 0.002118 0.002071
vt 0.083174 0.002071
vt 0.177240 0.001989
vt 0.258296 0.001989
vt 0.346605 0.001989
vt 0.441528 0.002147
vt 0.440975 0.367759
vt 0.346781 0.367759
vt 0.346770 0.397295
vt 0.440572 0.397335
vt 0.265296 0.368174
vt 0.265359 0.397295
vt 0.521442 0.368174
vt 0.521521 0.397335
vt 0.346478 0.483254
vt 0.265422 0.483254
vt 0.521599 0.483336
vt 0.440544 0.483336
vt 0.803206 0.634852
vt 0.884555 0.635004
vt 0.884262 0.720964
vt 0.803206 0.720964
vt 0.916981 0.724955
vt 0.997929 0.724955
vt 0.998008 0.810955
vt 0.916952 0.810955
vt 0.741672 0.772257
vt 0.822727 0.772257
vt 0.822648 0.858258
vt 0.741700 0.858258
vt 0.477140 0.885413
vt 0.558196 0.885413
vt 0.558488 0.971373
vt 0.477077 0.971373
vt 0.638158 0.591897
vt 0.638158 0.526418
vt 0.820100 0.526418
vt 0.820100 0.591897
vt 0.638158 0.431421
vt 0.820100 0.431421
vt 0.638158 0.374635
vt 0.820100 0.374635
vt 0.242074 0.704760
vt 0.242074 0.639281
vt 0.424016 0.639281
vt 0.424016 0.704760
vt 0.242074 0.544285
vt 0.424016 0.544285
vt 0.242074 0.487498
vt 0.424016 0.487498
vn 0.000004 -0.000840 1.000000
vn 0.000004 -0.000840 1.000000
vn 0.000004 -0.000840 1.000000
vn 0.000004 -0.000840 1.000000
vn -0.000000 -0.000197 -1.000000
vn -0.000000 -0.000197 -1.000000
vn -0.000000 -0.000197 -1.000000
vn -0.000000 -0.000197 -1.000000
vn 0.999997 -0.001518 0.002036
vn 0.999996 -0.001518 0.002201
vn 0.999996 -0.001518 0.002201
vn 0.999997 -0.001518 0.002033
vn -1.000000 -0.000815 0.000225
vn -1.000000 -0.000839 0.000208
vn -1.000000 -0.000840 0.000208
vn -1.000000 -0.000815 0.000225
vn 0.000000 0.000156 1.000000
vn 0.000000 0.000156 1.000000
vn 0.000000 0.000156 1.000000
vn 0.000000 0.000156 1.000000
vn 0.000943 0.000887 -0.999999
vn 0.000943 0.000887 -0.999999
vn 0.000943 0.000887 -0.999999
vn 0.000943 0.000887 -0.999999
vn 0.000000 -1.000000 0.000000
vn 0.000000 -1.000000 0.000000
vn 0.000000 -1.000000 0.000000
vn 0.000000 -1.000000 0.000000
vn 0.999994 -0.003402 0.000000
vn 0.999994 -0.003402 0.000000
vn 0.999994 -0.003402 0.000000
vn 0.999994 -0.003402 0.000000
vn -1.000000 -0.000367 -0.000386
vn -1.000000 -0.000367 -0.000386
vn -1.000000 -0.000367 -0.000386
vn -1.000000 -0.000367 -0.000386
vn 0.000000 0.000156 1.000000
vn 0.000000 0.000156 1.000000
vn 0.000000 0.000156 1.000000
vn 0.000000 0.000156 1.000000
vn 0.000000 0.001779 -0.999998
vn 0.000000 0.001779 -0.999999
vn 0.000000 0.001779 -0.999998
vn 0.000000 0.001779 -0.999999
vn 0.000000 -1.000000 0.000000
vn 0.000000 -1.000000 0.000000
vn 0.000000 -1.000000 0.000000
vn 0.000000 -1.000000 0.000000
vn 1.000000 0.000918 0.000000
vn 1.000000 0.000918 0.000000
vn 1.000000 0.000918 0.000000
vn 1.000000 0.000918 0.000000
vn -1.000000 0.000330 0.000000
vn -1.000000 0.000330 0.000000
vn -1.000000 0.000330 0.000000
vn -1.000000 0.000330 0.000000
vn -0.002885 -0.007611 0.999967
vn -0.001336 -0.011880 0.999929
vn -0.001333 -0.011888 0.999928
vn -0.002885 -0.007611 0.999967
vn -0.003717 0.999992 0.001146
vn -0.003717 0.999992 0.001146
vn -0.003815 0.999992 0.001241
vn -0.003815 0.999992 0.001241
vn 0.000026 -0.020700 -0.999786
vn 0.000009 -0.020654 -0.999787
vn 0.000010 -0.020654 -0.999787
vn 0.000026 -0.020700 -0.999786
vn 0.999996 0.002705 0.000000
vn 0.999996 0.002705 0.000000
vn 0.999996 0.002705 0.000000
vn 0.999996 0.002705 0.000000
vn -0.999998 -0.002169 0.000000
vn -0.999998 -0.002081 -0.000351
vn -0.999998 -0.002080 -0.000355
vn -0.999998 -0.002169 0.000000
vn 0.001349 -0.011870 0.999929
vn 0.001326 -0.011931 0.999928
vn 0.002911 -0.007614 0.999967
vn 0.002911 -0.007614 0.999967
vn 0.003862 0.999992 0.001242
vn 0.003763 0.999992 0.001147
vn 0.003763 0.999992 0.001147
vn 0.003862 0.999992 0.001242
vn -0.000014 -0.020641 -0.999787
vn -0.000014 -0.020641 -0.999787
vn -0.000026 -0.020671 -0.999786
vn -0.000026 -0.020671 -0.999786
vn -0.526894 -0.673163 0.518877
vn 0.000000 -0.085915 0.996303
vn 0.000000 -1.000000 0.000000
vn -0.000408 -1.000000 0.000000
vn 0.000079 -0.087728 0.996145
vn 0.525517 -0.675063 0.517805
vn -0.000347 -1.000000 -0.000696
vn 0.000927 -0.999944 -0.010539
vn -0.999999 -0.001080 0.000004
vn -0.999999 -0.001080 0.000000
vn -0.003712 0.999992 -0.001170
vn -0.003711 0.999992 -0.001169
vn 0.003757 0.999992 -0.001170
vn 0.003757 0.999992 -0.001171
vn 0.999996 0.002705 0.000000
vn 0.999996 0.002705 0.000000
vn -0.999999 -0.001082 0.000388
vn -0.999999 -0.001082 0.000388
vn -0.003811 0.999992 -0.001269
vn -0.003811 0.999992 -0.001269
vn 0.003858 0.999992 -0.001270
vn 0.003858 0.999992 -0.001270
vn 0.999996 0.002705 0.000000
vn 0.999996 0.002705 0.000000
vn 0.670713 -0.741717 -0.000000
vn -0.672491 -0.740105 -0.000000
vn -0.000437 -1.000000 0.000000
vn -0.000437 -1.000000 0.000000
vn 0.000000 -0.003066 0.999995
vn 0.000000 -0.003066 0.999995
vn 0.000000 -0.007035 -0.999975
vn 0.000000 -0.007035 -0.999975
vn 0.000000 -0.007035 -0.999975
vn 0.000000 -0.007035 -0.999975
vn 0.000000 -1.000000 0.000000
vn 0.000000 -1.000000 0.000000
vn 0.000000 -1.000000 0.000000
vn 0.000000 -1.000000 0.000000
vn 1.000000 0.000918 0.000000
vn 1.000000 0.000918 0.000000
vn 1.000000 0.000918 0.000000
vn 1.000000 0.000918 0.000000
vn -1.000000 0.000330 0.000000
vn -1.000000 0.000330 0.000000
vn 0.000000 -0.003068 0.999995
vn 0.000000 -0.003068 0.999995
vn 0.000000 -0.007038 -0.999975
vn 0.000000 -0.007038 -0.999975
vn 0.000000 -0.007038 -0.999975
vn 0.000000 -0.007038 -0.999975
vn 0.000000 -1.000000 0.000000
vn 0.000000 -1.000000 0.000000
vn 0.000000 -1.000000 0.000000
vn 0.000000 -1.000000 0.000000
vn 0.999994 -0.003402 0.000000
vn 0.999994 -0.003402 0.000000
vn -1.000000 -0.000735 0.000000
vn -1.000000 -0.000735 0.000000
vn -1.000000 -0.000735 0.000000
vn -1.000000 -0.000735 0.000000
vn -1.000000 -0.000841 -0.000216
vn -1.000000 -0.000815 -0.000234
vn -1.000000 -0.000815 -0.000234
vn -1.000000 -0.000841 -0.000215
vn 0.999996 -0.001515 -0.002245
vn 0.999997 -0.001516 -0.002073
vn 0.999997 -0.001516 -0.002071
vn 0.999996 -0.001515 -0.002245
vn 0.000000 0.000000 1.000000
vn 0.000000 0.000000 1.000000
vn 0.000000 0.000000 1.000000
vn 0.000000 0.000000 1.000000
vn 0.000000 1.000000 0.000000
vn 0.000000 1.000000 0.000000
vn 0.000000 1.000000 0.000000
vn 0.000000 1.000000 0.000000
vn 0.000000 0.000000 -1.000000
vn 0.000000 0.000000 -1.000000
vn 0.000000 0.000000 -1.000000
vn 0.000000 0.000000 -1.000000
vn 0.001274 -0.999988 0.004742
vn 0.000024 -0.999988 0.004892
vn -0.002735 -0.999996 -0.000831
vn -0.002990 -0.999994 -0.001611
vn 1.000000 0.000000 0.000000
vn 1.000000 0.000000 0.000000
vn 1.000000 0.000000 0.000000
vn 1.000000 0.000000 0.000000
vn -1.000000 0.000000 0.000000
vn -1.000000 0.000000 0.000000
vn -1.000000 0.000000 0.000000
vn -1.000000 0.000000 0.000000
vn -0.000548 -0.999995 0.003213
vn -0.000084 -1.000000 0.000272
vn -0.002777 -0.999996 0.000886
vn -0.002517 -0.999996 0.001439
vn 0.000000 0.000000 1.000000
vn 0.000000 0.000000 1.000000
vn 0.000000 0.000000 1.000000
vn 0.000000 0.000000 1.000000
vn 0.000000 1.000000 0.000000
vn 0.000000 1.000000 0.000000
vn 0.000000 1.000000 0.000000
vn 0.000000 1.000000 0.000000
vn 0.000000 0.000000 -1.000000
vn 0.000000 0.000000 -1.000000
vn 0.000000 0.000000 -1.000000
vn 0.000000 0.000000 -1.000000
vn -0.003048 -0.999995 -0.000020
vn -0.002310 -0.999997 0.001132
vn -0.002828 -0.999996 0.000595
vn -0.003504 -0.999994 -0.000456
vn -1.000000 0.000000 0.000000
vn -1.000000 0.000000 0.000000
vn 0.000000 1.000000 0.000000
vn 0.000000 1.000000 0.000000
vn 0.000000 1.000000 0.000000
vn 0.000000 1.000000 0.000000
vn 1.000000 0.000000 0.000000
vn 1.000000 0.000000 0.000000
vn -0.002996 -0.999879 -0.015244
vn 0.001965 -0.999996 0.001948
vn 0.001051 -0.999824 0.018745
vn -0.004736 -0.999603 0.027789
vn -1.000000 0.000000 0.000000
vn -1.000000 0.000000 0.000000
vn 0.000000 1.000000 0.000000
vn 0.000000 1.000000 0.000000
vn 0.000000 1.000000 0.000000
vn 0.000000 1.000000 0.000000
vn 1.000000 0.000000 0.000000
vn 1.000000 0.000000 0.000000
usemtl lambert2SG
f 1/151/1 2/152/2 4/153/3
f 1/151/1 4/153/3 3/154/4
f 5/165/5 6/166/6 8/167/7
f 5/165/5 8/167/7 7/168/8
f 36/1/9 8/2/10 6/3/11
f 36/1/9 6/3/11 57/4/12
f 7/9/13 45/10/14 56/11/15
f 7/9/13 56/11/15 5/12/16
f 9/161/17 10/162/18 12/155/19
f 9/161/17 12/155/19 11/157/20
f 13/179/21 14/180/22 16/181/23
f 13/179/21 16/181/23 15/182/24
f 15/75/25 16/76/26 10/77/27
f 15/75/25 10/77/27 9/78/28
f 10/17/29 16/18/30 14/19/31
f 10/17/29 14/19/31 12/20/32
f 15/21/33 9/22/34 11/23/35
f 15/21/33 11/23/35 13/24/36
f 17/163/37 18/164/38 20/159/39
f 17/163/37 20/159/39 19/156/40
f 21/183/41 22/184/42 24/185/43
f 21/183/41 24/185/43 23/186/44
f 23/79/45 24/80/46 18/81/47
f 23/79/45 18/81/47 17/82/48
f 18/25/49 24/26/50 22/27/51
f 18/25/49 22/27/51 20/28/52
f 23/37/53 17/38/54 19/39/55
f 23/37/53 19/39/55 21/40/56
f 11/157/57 12/155/58 1/151/59
f 11/157/57 1/151/59 25/158/60
f 35/83/61 45/84/62 7/85/63
f 35/83/61 7/85/63 27/86/64
f 27/171/65 7/168/66 42/169/67
f 27/171/65 42/169/67 29/172/68
f 37/32/69 32/31/70 30/33/71
f 37/32/69 30/33/71 28/34/72
f 29/41/73 34/42/74 35/43/75
f 29/41/73 35/43/75 27/44/76
f 2/152/77 19/156/78 20/159/79
f 2/152/77 20/159/79 26/160/80
f 8/91/81 36/92/82 37/93/83
f 8/91/81 37/93/83 28/94/84
f 31/170/85 8/167/86 28/173/87
f 31/170/85 28/173/87 30/174/88
f 33/99/89 32/100/90 22/101/91
f 33/99/89 22/101/91 21/102/92
f 34/105/93 43/104/94 14/103/95
f 34/105/93 14/103/95 38/106/96
f 35/43/75 34/42/74 38/47/97
f 35/43/75 38/47/97 39/48/98
f 39/87/99 44/88/100 45/84/62
f 39/87/99 45/84/62 35/83/61
f 37/93/83 36/92/82 40/95/101
f 37/93/83 40/95/101 41/96/102
f 41/29/103 22/27/104 32/31/70
f 41/29/103 32/31/70 37/32/69
f 39/48/98 38/47/97 11/49/105
f 39/48/98 11/49/105 25/50/106
f 25/89/107 1/90/108 44/88/100
f 25/89/107 44/88/100 39/87/99
f 41/96/102 40/95/101 2/97/109
f 41/96/102 2/97/109 26/98/110
f 20/28/111 22/27/104 41/29/103
f 20/28/111 41/29/103 26/30/112
f 42/107/113 31/108/114 33/99/89
f 42/107/113 33/99/89 43/104/94
f 14/103/95 43/104/94 33/99/89
f 14/103/95 33/99/89 21/102/92
f 12/109/115 14/103/95 21/102/92
f 12/109/115 21/102/92 19/110/116
f 1/151/59 12/155/58 19/156/78
f 1/151/59 19/156/78 2/152/77
f 42/169/67 7/168/66 8/167/86
f 42/169/67 8/167/86 31/170/85
f 46/187/117 47/188/118 32/189/90
f 46/187/117 32/189/90 33/190/89
f 31/170/119 30/174/120 49/177/121
f 31/170/119 49/177/121 48/178/122
f 48/111/123 49/112/124 47/113/125
f 48/111/123 47/113/125 46/114/126
f 47/35/127 49/36/128 30/33/129
f 47/35/127 30/33/129 32/31/130
f 48/51/131 46/52/132 33/53/89
f 48/51/131 33/53/89 31/54/114
f 50/191/133 51/192/134 43/193/94
f 50/191/133 43/193/94 34/194/93
f 29/172/135 42/169/136 53/175/137
f 29/172/135 53/175/137 52/176/138
f 52/115/139 53/116/140 51/117/141
f 52/115/139 51/117/141 50/118/142
f 51/55/143 53/56/144 42/57/113
f 51/55/143 42/57/113 43/58/94
f 52/45/145 50/46/146 34/42/147
f 52/45/145 34/42/147 29/41/148
f 44/13/149 1/15/150 3/16/151
f 44/13/149 3/16/151 54/14/152
f 2/7/153 40/5/154 55/6/155
f 2/7/153 55/6/155 4/8/156
f 45/10/14 44/13/149 54/14/152
f 45/10/14 54/14/152 56/11/15
f 40/5/154 36/1/9 57/4/12
f 40/5/154 57/4/12 55/6/155
f 58/195/157 71/196/158 72/197/159
f 58/195/157 72/197/159 60/198/160
f 76/119/161 77/120/162 73/121/163
f 76/119/161 73/121/163 62/122/164
f 62/203/165 73/204/166 70/205/167
f 62/203/165 70/205/167 64/206/168
f 64/135/169 70/136/170 5/137/171
f 64/135/169 5/137/171 75/138/172
f 79/59/173 74/60/174 65/61/175
f 79/59/173 65/61/175 63/62/176
f 64/67/177 75/68/178 76/69/179
f 64/67/177 76/69/179 62/70/180
f 66/139/181 65/143/182 74/144/183
f 66/139/181 74/144/183 6/140/184
f 68/200/185 67/199/186 59/201/187
f 68/200/185 59/201/187 61/202/188
f 69/126/189 78/125/190 79/130/191
f 69/126/189 79/130/191 63/131/192
f 66/208/193 69/207/194 63/209/195
f 66/208/193 63/209/195 65/210/196
f 70/136/170 66/139/181 6/140/184
f 70/136/170 6/140/184 5/137/171
f 72/197/159 71/196/158 67/199/186
f 72/197/159 67/199/186 68/200/185
f 73/121/163 77/120/162 78/125/190
f 73/121/163 78/125/190 69/126/189
f 70/205/167 73/204/166 69/207/194
f 70/205/167 69/207/194 66/208/193
f 6/140/184 74/144/183 80/147/197
f 6/140/184 80/147/197 4/148/198
f 75/138/172 5/137/171 3/141/199
f 75/138/172 3/141/199 81/142/200
f 76/69/179 75/68/178 81/71/201
f 76/69/179 81/71/201 82/72/202
f 82/123/203 83/124/204 77/120/162
f 82/123/203 77/120/162 76/119/161
f 78/125/190 77/120/162 83/124/204
f 78/125/190 83/124/204 84/129/205
f 79/130/191 78/125/190 84/129/205
f 79/130/191 84/129/205 85/133/206
f 85/63/207 80/64/208 74/60/174
f 85/63/207 74/60/174 79/59/173
f 4/148/198 80/147/197 59/150/209
f 4/148/198 59/150/209 67/149/210
f 3/141/199 4/148/198 67/149/210
f 3/141/199 67/149/210 71/145/211
f 81/142/200 3/141/199 71/145/211
f 81/142/200 71/145/211 58/146/212
f 82/72/202 81/71/201 58/73/213
f 82/72/202 58/73/213 60/74/214
f 60/127/215 72/128/216 83/124/204
f 60/127/215 83/124/204 82/123/203
f 84/129/205 83/124/204 72/128/216
f 84/129/205 72/128/216 68/132/217
f 85/133/206 84/129/205 68/132/217
f 85/133/206 68/132/217 61/134/218
f 59/65/219 80/64/208 85/63/207
f 59/65/219 85/63/207 61/66/220
